<svg width="161" height="46" viewBox="0 0 161 46" fill="none" xmlns="http://www.w3.org/2000/svg">
    <mask id="path-1-outside-1_7_9" maskUnits="userSpaceOnUse" x="-1" y="0" width="162" height="46" fill="black">
        <rect fill="white" x="-1" width="162" height="46"/>
        <path fill-rule="evenodd" clip-rule="evenodd"
              d="M156.691 21.6317C159.075 19.6837 158.457 15.8847 155.577 14.7936L125.155 3.26524C122.276 2.17412 119.295 4.60921 119.789 7.6484L121.66 19.1401C121.554 19.1556 121.448 19.174 121.342 19.1953L122.523 25.0779L121.341 19.1955L121.34 19.1957L121.328 19.1981L121.272 19.2092C121.22 19.2194 121.14 19.2351 121.034 19.2559C120.82 19.2975 120.498 19.3595 120.074 19.4392C119.227 19.5984 117.976 19.8277 116.381 20.1039C113.189 20.6563 108.628 21.395 103.18 22.1339C92.2521 23.6159 77.8842 25.0811 63.8766 25.0811C49.8797 25.0811 36.2168 23.6178 26.0117 22.1413C20.9208 21.4048 16.7173 20.669 13.7964 20.1194C12.3365 19.8447 11.1985 19.6168 10.432 19.4591C10.0488 19.3802 9.7586 19.3189 9.56756 19.278C9.47205 19.2576 9.40134 19.2423 9.35622 19.2325L9.30783 19.2219L9.2984 19.2198L8.00128 25.0779C9.2984 19.2198 9.29786 19.2197 9.29742 19.2196L9.29719 19.2196C6.06226 18.504 2.85946 20.5459 2.14317 23.7808C1.42679 27.0162 3.46882 30.2197 6.70416 30.9361L8.00128 25.0779C6.70416 30.9361 6.70491 30.9362 6.70576 30.9364L6.70797 30.9369L6.71426 30.9383L6.73426 30.9427L6.80364 30.9578C6.86287 30.9707 6.94792 30.9891 7.058 31.0127C7.27815 31.0598 7.59851 31.1274 8.01282 31.2127C8.84137 31.3832 10.0462 31.6244 11.5775 31.9125C14.6389 32.4885 19.011 33.2534 24.2935 34.0177C34.8351 35.5428 49.1099 37.0811 63.8766 37.0811C78.6327 37.0811 93.5878 35.5447 104.792 34.0251C110.41 33.2633 115.117 32.5011 118.428 31.928C120.083 31.6413 121.391 31.4017 122.291 31.2326C122.741 31.1481 123.088 31.0812 123.326 31.0348C123.438 31.0131 123.526 30.9959 123.588 30.9835L125.017 39.7592C125.512 42.7984 129.111 44.1623 131.496 42.2142L156.691 21.6317ZM123.073 27.8168C122.926 27.0866 122.745 26.1867 122.523 25.0779L123.072 27.815L123.073 27.8168Z"/>
    </mask>
    <path fill-rule="evenodd" clip-rule="evenodd"
          d="M156.691 21.6317C159.075 19.6837 158.457 15.8847 155.577 14.7936L125.155 3.26524C122.276 2.17412 119.295 4.60921 119.789 7.6484L121.66 19.1401C121.554 19.1556 121.448 19.174 121.342 19.1953L122.523 25.0779L121.341 19.1955L121.34 19.1957L121.328 19.1981L121.272 19.2092C121.22 19.2194 121.14 19.2351 121.034 19.2559C120.82 19.2975 120.498 19.3595 120.074 19.4392C119.227 19.5984 117.976 19.8277 116.381 20.1039C113.189 20.6563 108.628 21.395 103.18 22.1339C92.2521 23.6159 77.8842 25.0811 63.8766 25.0811C49.8797 25.0811 36.2168 23.6178 26.0117 22.1413C20.9208 21.4048 16.7173 20.669 13.7964 20.1194C12.3365 19.8447 11.1985 19.6168 10.432 19.4591C10.0488 19.3802 9.7586 19.3189 9.56756 19.278C9.47205 19.2576 9.40134 19.2423 9.35622 19.2325L9.30783 19.2219L9.2984 19.2198L8.00128 25.0779C9.2984 19.2198 9.29786 19.2197 9.29742 19.2196L9.29719 19.2196C6.06226 18.504 2.85946 20.5459 2.14317 23.7808C1.42679 27.0162 3.46882 30.2197 6.70416 30.9361L8.00128 25.0779C6.70416 30.9361 6.70491 30.9362 6.70576 30.9364L6.70797 30.9369L6.71426 30.9383L6.73426 30.9427L6.80364 30.9578C6.86287 30.9707 6.94792 30.9891 7.058 31.0127C7.27815 31.0598 7.59851 31.1274 8.01282 31.2127C8.84137 31.3832 10.0462 31.6244 11.5775 31.9125C14.6389 32.4885 19.011 33.2534 24.2935 34.0177C34.8351 35.5428 49.1099 37.0811 63.8766 37.0811C78.6327 37.0811 93.5878 35.5447 104.792 34.0251C110.41 33.2633 115.117 32.5011 118.428 31.928C120.083 31.6413 121.391 31.4017 122.291 31.2326C122.741 31.1481 123.088 31.0812 123.326 31.0348C123.438 31.0131 123.526 30.9959 123.588 30.9835L125.017 39.7592C125.512 42.7984 129.111 44.1623 131.496 42.2142L156.691 21.6317ZM123.073 27.8168C122.926 27.0866 122.745 26.1867 122.523 25.0779L123.072 27.815L123.073 27.8168Z"
          fill="black"/>
    <path d="M120.361 19.3922L121.542 25.2748L123.503 24.8811L122.322 18.9985L120.361 19.3922ZM155.577 14.7936L156.286 12.9233L156.286 12.9233L155.577 14.7936ZM156.691 21.6317L157.956 23.1806L157.956 23.1806L156.691 21.6317ZM125.155 3.26524L124.446 5.13546L124.446 5.13546L125.155 3.26524ZM119.789 7.6484L117.815 7.96976L117.815 7.96976L119.789 7.6484ZM121.66 19.1401L121.949 21.1191L123.961 20.8252L123.634 18.8187L121.66 19.1401ZM121.342 19.1953L120.948 17.2345L118.987 17.6281L119.381 19.589L121.342 19.1953ZM121.341 19.1955L123.302 18.8016L122.908 16.8436L120.95 17.2341L121.341 19.1955ZM121.34 19.1957L120.949 17.2343L120.948 17.2344L121.34 19.1957ZM121.328 19.1981L121.717 21.1598L121.719 21.1594L121.328 19.1981ZM121.272 19.2092L121.66 21.1712L121.661 21.171L121.272 19.2092ZM121.034 19.2559L120.652 17.2927L120.652 17.2927L121.034 19.2559ZM120.074 19.4392L120.444 21.4047L120.444 21.4047L120.074 19.4392ZM116.381 20.1039L116.722 22.0746L116.722 22.0746L116.381 20.1039ZM103.18 22.1339L102.911 20.1521L102.911 20.1521L103.18 22.1339ZM26.0117 22.1413L26.2981 20.1619L26.2981 20.1619L26.0117 22.1413ZM13.7964 20.1194L14.1662 18.1539L14.1662 18.1539L13.7964 20.1194ZM10.432 19.4591L10.0288 21.418L10.0288 21.418L10.432 19.4591ZM9.56756 19.278L9.14927 21.2338L9.14931 21.2338L9.56756 19.278ZM9.35622 19.2325L8.92922 21.1864L8.93081 21.1867L9.35622 19.2325ZM9.30783 19.2219L8.87872 21.1753L8.88083 21.1758L9.30783 19.2219ZM9.2984 19.2198L9.72751 17.2664L7.77734 16.838L7.34569 18.7875L9.2984 19.2198ZM9.29742 19.2196L8.86356 21.172L8.86901 21.1732L9.29742 19.2196ZM9.29719 19.2196L9.73105 17.2672L9.72917 17.2668L9.29719 19.2196ZM2.14317 23.7808L0.190463 23.3485L0.190463 23.3485L2.14317 23.7808ZM6.70416 30.9361L6.27179 32.8888L8.2245 33.3211L8.65687 31.3684L6.70416 30.9361ZM6.70576 30.9364L7.13802 28.9837L7.13636 28.9833L6.70576 30.9364ZM6.70797 30.9369L6.27571 32.8896L6.27684 32.8899L6.70797 30.9369ZM6.71426 30.9383L6.28313 32.8913L6.28456 32.8916L6.71426 30.9383ZM6.73426 30.9427L6.30456 32.896L6.30727 32.8966L6.73426 30.9427ZM6.80364 30.9578L6.37666 32.9117L6.37816 32.9121L6.80364 30.9578ZM7.058 31.0127L6.63973 32.9685L6.63975 32.9685L7.058 31.0127ZM8.01282 31.2127L8.41602 29.2538L8.41602 29.2538L8.01282 31.2127ZM11.5775 31.9125L11.9473 29.947L11.9473 29.947L11.5775 31.9125ZM24.2935 34.0177L24.0071 35.9971L24.0071 35.9971L24.2935 34.0177ZM104.792 34.0251L105.061 36.0069L105.061 36.0069L104.792 34.0251ZM118.428 31.928L118.769 33.8987L118.769 33.8987L118.428 31.928ZM122.291 31.2326L121.921 29.267L121.921 29.267L122.291 31.2326ZM123.326 31.0348L122.944 29.0717L122.944 29.0717L123.326 31.0348ZM123.588 30.9835L125.562 30.6621L125.23 28.6203L123.2 29.0215L123.588 30.9835ZM125.017 39.7592L126.991 39.4378L126.991 39.4378L125.017 39.7592ZM131.496 42.2142L132.761 43.7631L132.761 43.7631L131.496 42.2142ZM123.073 27.8168L121.112 28.2106L125.046 27.489L123.073 27.8168ZM123.072 27.815L125.045 27.4872L125.04 27.454L125.033 27.4211L123.072 27.815ZM154.869 16.6638C156.308 17.2093 156.618 19.1088 155.425 20.0829L157.956 23.1806C161.533 20.2585 160.605 14.56 156.286 12.9233L154.869 16.6638ZM124.446 5.13546L154.869 16.6638L156.286 12.9233L125.864 1.39502L124.446 5.13546ZM121.764 7.32705C121.516 5.80745 123.007 4.58991 124.446 5.13546L125.864 1.39502C121.545 -0.241668 117.073 3.41097 117.815 7.96976L121.764 7.32705ZM123.634 18.8187L121.764 7.32704L117.815 7.96976L119.686 19.4614L123.634 18.8187ZM121.371 17.1611C121.23 17.1817 121.089 17.2061 120.948 17.2345L121.735 21.1562C121.807 21.1418 121.878 21.1295 121.949 21.1191L121.371 17.1611ZM119.381 19.589L120.562 25.4716L124.484 24.6843L123.302 18.8017L119.381 19.589ZM119.38 19.5894L120.562 25.4719L124.483 24.684L123.302 18.8016L119.38 19.5894ZM121.731 21.1571L121.732 21.1569L120.95 17.2341L120.949 17.2343L121.731 21.1571ZM121.719 21.1594L121.731 21.157L120.948 17.2344L120.936 17.2368L121.719 21.1594ZM121.661 21.171L121.717 21.1598L120.938 17.2364L120.882 17.2475L121.661 21.171ZM121.416 21.219C121.525 21.1979 121.606 21.1818 121.66 21.1712L120.884 17.2472C120.834 17.2571 120.756 17.2723 120.652 17.2927L121.416 21.219ZM120.444 21.4047C120.871 21.3243 121.198 21.2614 121.416 21.219L120.652 17.2927C120.442 17.3335 120.124 17.3948 119.705 17.4736L120.444 21.4047ZM116.722 22.0746C118.327 21.7967 119.588 21.5656 120.444 21.4047L119.705 17.4736C118.866 17.6312 117.624 17.8588 116.039 18.1332L116.722 22.0746ZM103.448 24.1158C108.925 23.373 113.511 22.6305 116.722 22.0746L116.039 18.1332C112.868 18.6822 108.332 19.4169 102.911 20.1521L103.448 24.1158ZM63.8766 27.0811C78.009 27.0811 92.4747 25.6041 103.448 24.1158L102.911 20.1521C92.0295 21.6278 77.7594 23.0811 63.8766 23.0811V27.0811ZM25.7253 24.1207C35.9865 25.6053 49.7514 27.0811 63.8766 27.0811V23.0811C50.0081 23.0811 36.4471 21.6303 26.2981 20.1619L25.7253 24.1207ZM13.4266 22.0849C16.3709 22.6389 20.6025 23.3796 25.7253 24.1207L26.2981 20.1619C21.2391 19.43 17.0637 18.6991 14.1662 18.1539L13.4266 22.0849ZM10.0288 21.418C10.8056 21.5779 11.9547 21.808 13.4266 22.0849L14.1662 18.1539C12.7182 17.8814 11.5913 17.6558 10.8352 17.5001L10.0288 21.418ZM9.14931 21.2338C9.3452 21.2757 9.64043 21.3381 10.0288 21.418L10.8352 17.5001C10.4572 17.4223 10.172 17.3621 9.98581 17.3223L9.14931 21.2338ZM8.93081 21.1867C8.97827 21.197 9.05135 21.2129 9.14927 21.2338L9.98585 17.3223C9.89275 17.3024 9.82442 17.2876 9.78164 17.2782L8.93081 21.1867ZM8.88083 21.1758L8.92922 21.1864L9.78322 17.2786L9.73483 17.268L8.88083 21.1758ZM8.86929 21.1733L8.87872 21.1753L9.73694 17.2685L9.72751 17.2664L8.86929 21.1733ZM7.34569 18.7875L6.04858 24.6456L9.95399 25.5103L11.2511 19.6522L7.34569 18.7875ZM9.95399 25.5103C10.6025 22.5813 10.9267 21.1165 11.0888 20.3839C11.1697 20.0178 11.2103 19.8338 11.2307 19.7412C11.2407 19.6959 11.2465 19.6695 11.2499 19.6538C11.2507 19.6499 11.2543 19.6332 11.2579 19.6154C11.2591 19.6098 11.2612 19.5989 11.2638 19.5852C11.2655 19.5759 11.2716 19.5431 11.2776 19.501C11.2805 19.4801 11.2862 19.4377 11.2907 19.384C11.2939 19.3453 11.3038 19.2205 11.2912 19.0612C11.2836 18.9659 11.2485 18.4642 10.8682 17.9816C10.6468 17.7006 10.3753 17.5101 10.1101 17.3922C10.0176 17.3538 9.87457 17.3047 9.82553 17.2906C9.77585 17.2777 9.72585 17.266 9.72584 17.266L8.86901 21.1732C8.869 21.1732 8.819 21.1615 8.76932 21.1486C8.72028 21.1345 8.57728 21.0855 8.48474 21.0471C8.21953 20.9291 7.94811 20.7386 7.72667 20.4576C7.34634 19.9751 7.3113 19.4734 7.30372 19.378C7.29107 19.2188 7.30101 19.0941 7.3042 19.0554C7.30862 19.0017 7.31433 18.9594 7.31729 18.9386C7.32325 18.8966 7.32929 18.8641 7.33093 18.8553C7.3334 18.842 7.33547 18.8316 7.33645 18.8267C7.33946 18.8118 7.34187 18.8008 7.34025 18.8083C7.33867 18.8156 7.33444 18.835 7.32426 18.8812C7.30434 18.9717 7.26412 19.1539 7.18312 19.5202C7.02123 20.2522 6.69714 21.7165 6.04858 24.6456L9.95399 25.5103ZM8.86333 21.1719L8.86356 21.172L9.73129 17.2672L9.73105 17.2672L8.86333 21.1719ZM4.09587 24.2132C4.5734 22.0566 6.7086 20.6953 8.86521 21.1724L9.72917 17.2668C5.41591 16.3126 1.14552 19.0352 0.190463 23.3485L4.09587 24.2132ZM7.13654 28.9834C4.97964 28.5058 3.61829 26.3701 4.09587 24.2132L0.190463 23.3485C-0.764706 27.6623 1.958 31.9336 6.27179 32.8888L7.13654 28.9834ZM6.04858 24.6456L4.75146 30.5037L8.65687 31.3684L9.95399 25.5103L6.04858 24.6456ZM7.13636 28.9833C7.13636 28.9833 7.16208 28.9892 7.18772 28.9953C7.21325 29.0019 7.28907 29.0234 7.33904 29.0393C7.4734 29.0842 7.66278 29.1632 7.86297 29.3052C8.30317 29.6175 8.51279 30.0272 8.60695 30.3156C8.68927 30.5677 8.70108 30.7769 8.70426 30.8599C8.70808 30.9601 8.70346 31.0396 8.70054 31.0801C8.69472 31.1608 8.68508 31.2233 8.68241 31.2406C8.67844 31.2663 8.6748 31.2865 8.67305 31.2961C8.66949 31.3154 8.66649 31.33 8.66595 31.3326C8.66542 31.3353 8.66501 31.3372 8.6648 31.3382C8.66457 31.3393 8.66444 31.3399 8.66444 31.3399C8.66444 31.34 8.66451 31.3396 8.66468 31.3388C8.66485 31.338 8.66509 31.3369 8.66541 31.3354C8.66606 31.3324 8.66696 31.3282 8.66819 31.3226C8.67064 31.3113 8.67412 31.2954 8.67901 31.2731C8.69868 31.1834 8.73868 31.0019 8.81966 30.6355C8.98141 29.9036 9.30541 28.4394 9.95399 25.5103L6.04858 24.6456C5.40003 27.5746 5.07585 29.0395 4.91391 29.7723C4.83303 30.1382 4.79232 30.3229 4.77183 30.4164C4.76198 30.4613 4.75558 30.4907 4.75152 30.5099C4.75106 30.512 4.74478 30.5412 4.73879 30.5738C4.7369 30.5841 4.73317 30.6048 4.72914 30.631C4.7264 30.6487 4.71673 30.7114 4.7109 30.7923C4.70797 30.833 4.70334 30.9125 4.70717 31.0127C4.71035 31.0958 4.72217 31.305 4.80449 31.5571C4.89867 31.8456 5.10829 32.2553 5.54851 32.5676C5.7487 32.7096 5.93809 32.7886 6.07246 32.8335C6.12243 32.8495 6.19825 32.8709 6.22379 32.8775C6.24943 32.8837 6.27515 32.8895 6.27515 32.8895L7.13636 28.9833ZM7.14023 28.9842L7.13802 28.9837L6.2735 32.8891L6.27571 32.8896L7.14023 28.9842ZM7.14539 28.9853L7.1391 28.9839L6.27684 32.8899L6.28313 32.8913L7.14539 28.9853ZM7.16395 28.9894L7.14396 28.985L6.28456 32.8916L6.30456 32.896L7.16395 28.9894ZM7.23063 29.004L7.16124 28.9888L6.30727 32.8966L6.37666 32.9117L7.23063 29.004ZM7.47627 29.0569C7.3686 29.0339 7.28597 29.016 7.22913 29.0036L6.37816 32.9121C6.43978 32.9255 6.52723 32.9444 6.63973 32.9685L7.47627 29.0569ZM8.41602 29.2538C8.00689 29.1696 7.69156 29.103 7.47625 29.0569L6.63975 32.9685C6.86475 33.0166 7.19012 33.0853 7.60963 33.1716L8.41602 29.2538ZM11.9473 29.947C10.4279 29.6611 9.23422 29.4222 8.41602 29.2538L7.60962 33.1716C8.44852 33.3443 9.66453 33.5876 11.2077 33.878L11.9473 29.947ZM24.5799 32.0383C19.3293 31.2787 14.9853 30.5186 11.9473 29.947L11.2077 33.878C14.2925 34.4584 18.6927 35.2282 24.0071 35.9971L24.5799 32.0383ZM63.8766 35.0811C49.2382 35.0811 35.0654 33.5553 24.5799 32.0383L24.0071 35.9971C34.6049 37.5303 48.9816 39.0811 63.8766 39.0811V35.0811ZM104.524 32.0432C93.3652 33.5565 78.5079 35.0811 63.8766 35.0811V39.0811C78.7574 39.0811 93.8104 37.5328 105.061 36.0069L104.524 32.0432ZM118.086 29.9573C114.796 30.527 110.113 31.2852 104.524 32.0432L105.061 36.0069C110.706 35.2413 115.438 34.4752 118.769 33.8987L118.086 29.9573ZM121.921 29.267C121.031 29.4345 119.732 29.6724 118.086 29.9573L118.769 33.8987C120.435 33.6103 121.752 33.3689 122.66 33.1982L121.921 29.267ZM122.944 29.0717C122.71 29.1172 122.367 29.1833 121.921 29.267L122.66 33.1982C123.114 33.1128 123.466 33.0451 123.709 32.998L122.944 29.0717ZM123.2 29.0215C123.14 29.0335 123.054 29.0503 122.944 29.0717L123.708 32.998C123.822 32.9759 123.912 32.9583 123.976 32.9455L123.2 29.0215ZM126.991 39.4378L125.562 30.6621L121.614 31.3048L123.043 40.0805L126.991 39.4378ZM130.23 40.6653C129.038 41.6394 127.238 40.9574 126.991 39.4378L123.043 40.0805C123.785 44.6393 129.184 46.6852 132.761 43.7631L130.23 40.6653ZM155.425 20.0829L130.23 40.6653L132.761 43.7631L157.956 23.1806L155.425 20.0829ZM120.562 25.4719C120.785 26.5806 120.965 27.4804 121.112 28.2106L125.034 27.423C124.887 26.6927 124.706 25.7928 124.483 24.684L120.562 25.4719ZM120.562 25.4719L121.112 28.2089L125.033 27.4211L124.483 24.684L120.562 25.4719ZM125.046 27.489L125.045 27.4872L121.1 28.1427L121.1 28.1445L125.046 27.489Z"
          fill="white" mask="url(#path-1-outside-1_7_9)"/>
</svg>
