<?xml version="1.0" encoding="utf-8"?>
<!-- Generator: Adobe Illustrator 25.0.0, SVG Export Plug-In . SVG Version: 6.00 Build 0)  -->
<!DOCTYPE svg PUBLIC "-//W3C//DTD SVG 1.1//EN" "http://www.w3.org/Graphics/SVG/1.1/DTD/svg11.dtd" [
        <!ENTITY ns_extend "http://ns.adobe.com/Extensibility/1.0/">
        <!ENTITY ns_ai "http://ns.adobe.com/AdobeIllustrator/10.0/">
        <!ENTITY ns_graphs "http://ns.adobe.com/Graphs/1.0/">
        <!ENTITY ns_vars "http://ns.adobe.com/Variables/1.0/">
        <!ENTITY ns_imrep "http://ns.adobe.com/ImageReplacement/1.0/">
        <!ENTITY ns_sfw "http://ns.adobe.com/SaveForWeb/1.0/">
        <!ENTITY ns_custom "http://ns.adobe.com/GenericCustomNamespace/1.0/">
        <!ENTITY ns_adobe_xpath "http://ns.adobe.com/XPath/1.0/">
        ]>
<svg version="1.1" id="unono"
     xmlns="http://www.w3.org/2000/svg" x="0px" y="0px" width="230px"
     height="345px"
     viewBox="0 0 230 345" style="enable-background:new 0 0 230 345;" xml:space="preserve">
<style type="text/css">
	.st0{fill-rule:evenodd;clip-rule:evenodd;fill:#FFFFFF;}
	.st1{fill-rule:evenodd;clip-rule:evenodd;fill:#02000A;}
	.st2{fill-rule:evenodd;clip-rule:evenodd;fill:#EA0627;stroke:#FFFFFF;stroke-width:3;stroke-miterlimit:10;}
	.st3{fill:#FFFFFF;}
	.st4{fill-rule:evenodd;clip-rule:evenodd;}
	.st5{fill-rule:evenodd;clip-rule:evenodd;fill:#EDC918;}
</style>
    <metadata>
	<sfw xmlns="&ns_sfw;">
		<slices></slices>
        <sliceSourceBounds bottomLeftOrigin="true" height="345" width="230" x="0" y="0"></sliceSourceBounds>
	</sfw>
</metadata>
    <path id="rect2987-1-7" class="st0" d="M38.3,0h153.4C212.8,0,230,17.2,230,38.3v268.4c0,21.2-17.2,38.3-38.3,38.3H38.3
	C17.2,345,0,328,0,306.8c0,0,0,0,0-0.1V38.4C0,17.2,17.1,0,38.3,0z"/>
    <path id="rect3757-5-0" class="st1" d="M40,12.5h150.1c13.8,0,25,11.2,25,25v270.1c0,13.8-11.2,25-25,25l0,0H40
	c-13.8,0-25-11.2-25-25l0,0V37.5C15,23.7,26.2,12.5,40,12.5C40,12.5,40,12.5,40,12.5z"/>
    <path id="path3773-0-4-8-4-2-3" class="st2" d="M175.1,72.5C86.7,72.5,15,144.1,15,232.4c0,0,0,0.1,0,0.1c0,22.1,17.9,40,40,40
	c88.4,0,160-71.6,160.1-159.9c0,0,0,0,0-0.1C215.1,90.5,197.2,72.5,175.1,72.5C175.1,72.5,175.1,72.5,175.1,72.5z"/>
    <g id="uno">
	<path class="st3" d="M172.3,140.4L172.3,140.4c-0.2,1.5-0.1,3,0.1,4.5c0.2,1.6,0.7,3.3,1.3,5c0.9,2.4,2.1,4.5,3.5,6.3
		c1.3,1.6,2.8,2.9,4.5,3.9c2.1,0.9,4.1,1.3,5.7,1.3c1.3,0,2.4-0.4,3.1-1c0.5-0.5,0.8-1.2,1-2.2c0.2-1.4,0.1-3.2-0.4-5.4
		c-0.1-0.6-0.3-1.2-0.4-1.7c-0.2-0.5-0.3-1.1-0.6-1.7c-1.1-2.9-2.6-5.5-4.5-7.5c-1.6-1.7-3.6-3-5.7-3.6c-2.2-0.6-4.1-0.7-5.5-0.1
		c-0.9,0.3-1.6,1-2,2L172.3,140.4L172.3,140.4z M171.3,105.1c11.1-4.2,22.2-3.2,31.6,1.4c9.8,4.8,17.7,13.6,21.8,24.7
		c2.3,6.2,3.3,12.7,2.9,19c-0.4,6.2-2,12.3-5,17.7c-0.1,0.3-0.3,0.6-0.6,1.1c-0.2,0.5-0.5,0.8-0.6,1.1c-4.5,7.4-9.2,12.7-13.8,16.6
		c-4.7,3.9-9.4,6.4-14,8.1c-11.4,4.2-22.6,3.3-32.1-1.3c-10-4.8-18-13.7-22.2-24.9c-2.3-6.1-3.3-12.2-3.1-18.2
		c0.2-6,1.6-11.8,4.3-17.2c2-4,5.2-8.6,9.3-13.1c3.6-3.9,8-7.7,12.9-10.9l0.1,0c1.3-0.8,2.6-1.6,4.1-2.4
		C168.3,106.4,169.7,105.7,171.3,105.1L171.3,105.1z"/>
        <path class="st3" d="M119.2,125.7l19-7.1c1.7-0.6,3.6,0.2,4.3,1.9c0,0.1,0.1,0.2,0.1,0.3l27.1,72.2c0.2,0.4,0.4,0.8,0.4,1.3
		c0.1,1-0.3,2-1,2.6l-8.9,8.9c-0.4,0.4-0.8,0.6-1.3,0.8l-15.7,5.8c-1,0.4-2.1,0.2-3-0.3l0,0l-17.7-11.8l3.3,8.9
		c0.3,0.5,0.5,1.1,0.5,1.7c0,0.9-0.4,1.7-1,2.3l-8.9,8.8c-0.3,0.3-0.7,0.6-1.2,0.8l0,0L96.1,230c-1.7,0.6-3.6-0.2-4.3-1.9
		l-27.3-72.9c-0.5-1.4-0.1-2.8,1-3.7l8.6-8.7c0.4-0.4,0.8-0.6,1.3-0.8l16.7-6.1c1-0.4,2.1-0.2,3,0.3l0,0l16.2,10.6l-3-8
		c-0.5-1.3-0.1-2.6,0.8-3.5l8.8-8.9C118.3,126.1,118.7,125.9,119.2,125.7L119.2,125.7L119.2,125.7z"/>
        <path class="st3" d="M54.3,245.3c-7.5,0.8-14-0.7-19.6-4c-7.6-4.5-13.3-12.4-17.1-22.6L2.5,178.4c-0.5-1.4-0.1-2.8,1-3.7l8.6-8.7
		c0.3-0.3,0.8-0.6,1.2-0.8l0,0l19.1-7.1c1.7-0.6,3.6,0.2,4.3,1.9l15.4,41.2c0.9,2.4,2.2,4.6,3.9,6.1c1.3,1.1,2.9,1.9,4.9,2
		c0.4,0,0.9,0,1.2,0c0-0.7-0.1-1.5-0.2-2.3c-0.2-1.1-0.5-2.3-1-3.5l-15.4-41.2c-0.5-1.4-0.1-2.8,1-3.7l8.3-8.4
		c0.4-0.5,0.9-0.8,1.5-1.1l19.1-7.1c1.7-0.6,3.6,0.2,4.3,1.9l15.2,40.8c2.4,6.3,3.5,12.3,3.4,17.9c-0.1,5.7-1.4,10.9-4.1,15.7
		c-2.1,3.7-6.1,7.6-10.1,11.5c-0.9,0.9-1.8,1.8-2.6,2.5l-0.1,0.1c-1.5,1.6-3.2,3.1-5.1,4.4C69.9,241.5,62.2,244.4,54.3,245.3
		L54.3,245.3z"/>
        <polygon class="st4" points="120.3,128.8 139.3,121.7 166.6,194.6 166.7,194.6 157.8,203.5 142.1,209.3 115.9,191.9 122.9,210.9
		122.9,210.9 123,210.9 114.1,219.8 95,226.9 67.7,154 76.5,145.1 93.3,139 118,155.1 111.5,137.7 120.3,128.8 	"/>
        <path class="st4" d="M172.4,108.2c20.9-7.8,41.6,4,49.1,24.2c4.4,11.7,3.6,24.1-1.9,34.1c-0.3,0.6-0.6,1.3-1,1.9
		c-8.7,14.2-17.5,20.1-26.2,23.4c-21.5,8-42.5-4-50-24.2c-4.3-11.5-3.9-22.8,1-32.7c3.5-7.1,11.1-16.2,21.1-22.6l0,0
		C166.9,110.7,169.5,109.3,172.4,108.2L172.4,108.2z M169,139.8c0-0.1,0.1-0.2,0.1-0.3c1.4-4.5,5.9-5.8,11.5-4.3
		c5.8,1.5,10.1,6.8,12.5,13.1c0.5,1.3,0.8,2.6,1.1,3.9c1.1,5.2,0.6,8.7-1.5,10.7c-2.5,2.3-7.1,2.5-12.4,0.3c-4.4-2.3-7.8-6.8-9.7-12
		C169.1,147.3,168.6,143.4,169,139.8L169,139.8z"/>
        <polygon class="st4" points="134,165.5 120.3,128.8 139.3,121.7 166.7,194.7 150.9,200.5 108.6,172.4 122.9,210.9 103.8,218.1
		76.5,145.1 93.3,139 134,165.5 	"/>
        <polygon class="st0" points="139.1,171.9 123.6,130.3 137.8,125 163.4,193.2 151.2,197.6 103.5,166 119.7,209.4 105.3,214.8
		79.8,146.6 93,141.8 139.1,171.9 	"/>
        <polygon class="st5" points="117.4,208.4 106.3,212.6 82.1,147.7 92.8,143.7 142.6,176.2 125.8,131.3 136.8,127.2 161.1,192.1
		151.5,195.7 100,161.6 117.4,208.4 	"/>
        <path class="st4" d="M172.4,108.2c20.9-7.8,41.6,4,49.1,24.2c7.5,20.2-0.4,42.7-21.2,50.5c-20.8,7.8-41.6-4-49.1-24.2
		C143.7,138.5,151.5,116.1,172.4,108.2L172.4,108.2z M179.3,126.7c-10.5,3.9-12.4,14.7-8.8,24.4c3.6,9.7,12.1,16.6,22.6,12.6
		c10.6-3.9,12.4-14.7,8.8-24.4C198.3,129.7,189.9,122.8,179.3,126.7L179.3,126.7z"/>
        <path class="st0" d="M173.3,110.6c19.6-7.3,38.8,3.8,45.9,22.7c7.1,18.9-0.2,40-19.7,47.3c-19.5,7.3-38.8-3.8-45.9-22.7
		C146.5,138.9,153.7,117.9,173.3,110.6L173.3,110.6z M178.5,124.4c-11.9,4.4-14.4,16.6-10.3,27.6c4.1,11,14,18.6,25.9,14.1
		c11.9-4.5,14.4-16.6,10.2-27.6C200.2,127.5,190.3,119.9,178.5,124.4L178.5,124.4z"/>
        <path class="st5" d="M177.8,122.7c12.4-4.6,23.4,2.7,28.1,15.2c4.6,12.4,1.2,25.2-11.3,29.9c-12.4,4.6-23.5-2.7-28.1-15.1
		C161.9,140.2,165.4,127.4,177.8,122.7L177.8,122.7z M173.9,112.3c18.3-6.8,36.7,3.3,43.6,21.7c6.9,18.4-0.5,38.2-18.7,45
		c-18.2,6.8-36.7-3.3-43.6-21.7C148.3,138.8,155.6,119.1,173.9,112.3L173.9,112.3z"/>
        <path class="st4" d="M52.2,242.1c-15.1,0.9-25.6-8.8-31.5-24.6L5.6,177.2l8.8-8.9l19.1-7.1L49,202.4c2,5.3,5.7,9.9,11.7,10.2
		c1.7,0.1,4.1-0.1,4.6-2.4c0.2-2.6-0.4-5.3-1.3-7.8l-15.4-41.2l8.8-8.9l0,0l0,0l0,0l0,0l19.1-7.1l15.2,40.8
		c4.4,11.8,4.4,22.2-0.4,30.8c-2.3,4-7.6,8.8-12.2,13.3l0,0C72.5,237.3,62,241.6,52.2,242.1L52.2,242.1z"/>
        <path class="st4" d="M77.4,228.8l0.1,0.2l-4,1.5c-0.1,0-0.2,0.1-0.3,0.1c-0.1,0.1-0.3,0.1-0.4,0.2l-4,1.5l-0.1-0.2
		c-19.2,5-32.3-5-39.2-23.4l-15.1-40.3l19.1-7.1L49,202.4c2,5.3,5.7,9.9,11.7,10.2c1.8,0.1,3.6-0.3,5.3-0.9c1.7-0.6,3.3-1.6,4.7-2.9
		c4.4-4.2,4.1-10.1,2.1-15.3l-15.4-41.2l19.1-7.1l15.2,40.8C98.7,204.5,95.3,220.1,77.4,228.8L77.4,228.8z"/>
        <path class="st0" d="M74.2,227.5L74.2,227.5l-1.6,0.7c-0.1,0-0.2,0.1-0.3,0.1c-0.1,0-0.2,0.1-0.4,0.1l-1.6,0.6l0-0.1
		c-19,6-31.6-3.2-38.3-21.2l-14.2-37.9l14.4-5.4l14.5,38.8c2.4,6.3,6.9,11.5,14,11.8c2.1,0.1,4.3-0.3,6.3-1.1c2-0.8,4-1.9,5.5-3.4
		c5.1-4.9,5.1-11.8,2.7-18l-14.5-38.8l14.4-5.4l14.4,38.4C96.2,205,92.6,219.6,74.2,227.5L74.2,227.5z"/>
        <path class="st5" d="M20,170.9l11.1-4.2L45,203.9c4.6,12.3,14.3,14.8,22.6,11.8c8.2-3.1,14-11.4,9.3-23.7l-13.9-37.1l11.1-4.2
		l13.7,36.8c5.5,14.7,5.6,30.7-15.8,39.1l0,0c-0.1,0-0.2,0.1-0.3,0.1c-0.1,0-0.2,0.1-0.4,0.1l0,0c-21,7.5-32.1-4.5-37.8-19.6
		L20,170.9L20,170.9z"/>
</g>
</svg>
