<svg width="100" height="32" fill="none" xmlns="http://www.w3.org/2000/svg">
    <g clip-path="url(#clip0_1047_1303)">
        <rect width="32" height="32" rx="16" fill="url(#paint0_linear_1047_1303)"/>
        <path d="M8.974 15.009c0-1.753 0-2.63.341-3.3.3-.588.78-1.067 1.368-1.368.67-.34 1.546-.34 3.3-.34h4.07c1.752 0 2.629 0 3.299.34.589.3 1.068.78 1.368 1.369.097.19.167.398.216.638h-2.484c-.727 0-1.091 0-1.392.066a2.87 2.87 0 0 0-2.194 2.194c-.066.301-.066.665-.066 1.392 0 .728 0 1.091.066 1.393a2.87 2.87 0 0 0 2.194 2.194c.301.065.665.065 1.392.065h2.484c-.05.24-.12.448-.216.639a3.13 3.13 0 0 1-1.368 1.368c-.67.341-1.547.341-3.3.341h-4.07c-1.753 0-2.63 0-3.299-.341a3.13 3.13 0 0 1-1.368-1.368c-.341-.67-.341-1.546-.341-3.3V15.01z"
              fill="#fff"/>
        <path fill-rule="evenodd" clip-rule="evenodd"
              d="M17.843 16c0-.973 0-1.46.181-1.836.18-.372.48-.673.853-.852.376-.181.863-.181 1.836-.181h1.043c.974 0 1.46 0 1.836.18.373.18.674.48.853.853.181.376.181.863.181 1.836 0 .974 0 1.46-.18 1.836-.18.373-.481.674-.854.853-.375.18-.862.18-1.835.18h-1.044c-.974 0-1.46 0-1.836-.18a1.826 1.826 0 0 1-.853-.853c-.18-.375-.18-.862-.18-1.836zm3.392 0a1.043 1.043 0 1 1-2.087 0 1.043 1.043 0 0 1 2.087 0z"
              fill="#fff"/>
        <path d="M42.905 23.2h2.986l1.696-10.776h.05L49.335 23.2h2.985l2.479-14.655h-2.54l-1.482 11.12h-.061l-1.727-11.12h-2.762l-1.717 11.12h-.05l-1.493-11.12h-2.54L42.906 23.2zm11.72 0h2.661l2.397-11.822h.873V8.545h-2.478L54.625 23.2zm2.041-3.3h6.084l-.447-2.062h-5.19l-.447 2.061zm5.475 3.3h2.66L61.349 8.545h-1.614v2.833L62.14 23.2zm3.92 0h7.12v-2.255h-4.51v-12.4h-2.61V23.2zm8.43 0h7.12v-2.255H77.1v-12.4h-2.61V23.2zm8.44 0h7.282v-2.255H85.53v-4.113h4.428V14.71H85.53V10.8h4.681V8.545H82.93V23.2zm11.303 0h2.6V10.8h2.925V8.544h-8.47v2.254h2.945V23.2z"
              fill="#000"/>
    </g>
    <defs>
        <linearGradient id="paint0_linear_1047_1303" x1="16" x2="16" y2="32" gradientUnits="userSpaceOnUse">
            <stop stop-color="#60BFEF"/>
            <stop offset="1" stop-color="#0094FE"/>
        </linearGradient>
        <clipPath id="clip0_1047_1303">
            <path fill="#fff" d="M0 0H100V32H0z"/>
        </clipPath>
    </defs>
</svg>