<?xml version="1.0" encoding="utf-8"?>
<!-- Uploaded to: SVG Repo, www.svgrepo.com, Generator: SVG Repo Mixer Tools -->
<svg width="800px" height="800px" viewBox="0 0 1024 1024" class="icon" version="1.1" xmlns="http://www.w3.org/2000/svg">
    <path d="M171.547912 871.690231l91.625541-871.758789 614.461645 64.582521-91.625541 871.758789-614.461645-64.582521Z"
          fill="#2B6BBF"/>
    <path d="M184.407528 102.021343h557.874737a43.932636 43.932636 0 0 1 46.024666 41.143261v836.812106a43.932636 43.932636 0 0 1-43.235292 43.932635h-557.874737A43.235292 43.235292 0 0 1 141.172236 979.97671V143.164604a43.235292 43.235292 0 0 1 43.235292-41.143261z"
          fill="#5D9CEC"/>
    <path d="M464.739583 695.460594h-7.670777c-9.065464-6.276091-30.683111-20.920303-44.629979-32.077797-52.300757-41.143262-80.194493-69.734342-85.075898-92.746675a85.075897 85.075897 0 0 1-4.18406-25.104364A87.167928 87.167928 0 0 1 350.375262 479.284133a73.918403 73.918403 0 0 1 52.300757-22.314989 77.40512 77.40512 0 0 1 62.063564 30.68311 76.707776 76.707776 0 0 1 61.366221-32.077797 80.891837 80.891837 0 0 1 76.010433 82.286524 87.167928 87.167928 0 0 1-3.486717 23.709676c-4.184061 20.920303-32.077797 52.9981-82.286523 94.141362a522.310222 522.310222 0 0 1-48.116697 36.261858"
          fill="#E6E9ED"/>
</svg>