<?xml version="1.0" encoding="utf-8"?>
<!-- Generator: Adobe Illustrator 26.1.0, SVG Export Plug-In . SVG Version: 6.00 Build 0)  -->
<svg version="1.1" id="Слой_1" xmlns="http://www.w3.org/2000/svg" x="0px"
     y="0px"
     viewBox="0 0 800 800" style="enable-background:new 0 0 800 800;" xml:space="preserve">
<style type="text/css">
	.st0{fill:#FFFFFF;fill-opacity:1.000000e-02;}
	
		.st1{fill-rule:evenodd;clip-rule:evenodd;fill:#E40D1A;stroke:#000000;stroke-width:66.6667;stroke-linejoin:round;stroke-miterlimit:66.6667;}
	.st2{fill:#EF7B1F;stroke:#FFFFFF;stroke-width:66.6667;stroke-linejoin:round;stroke-miterlimit:66.6667;}
</style>
    <rect class="st0" width="800" height="800"/>
    <path class="st1" d="M385.8,733.3c135.8,0,280.9-16.5,280.9-230.3c0-103.6-24.9-187.9-74.6-253c-46.4,77.8-80.9,116.7-103.3,116.7
	c-33.6,0,0-101.5-38.9-178.5c-25.9-51.3-71.8-91.8-137.8-121.5c9.2,73.9,7.2,127.6-6,160.9c-19.7,50-187,137.6-171.9,288
	C149.4,666,250,733.3,385.8,733.3z"/>
    <path class="st2" d="M361.8,400.1c-63.4,57.6-90.4,111-81.1,160c8.1,42.2,40.1,62.8,64.2,69.4c18.7,5.1,51.1,8,80.1-17.8
	c30.7-27.3,18.4-66.1-26-114.2C380.2,477.4,367.8,444.9,361.8,400.1z"/>
</svg>
